<svg width="30" height="30" viewBox="0 0 30 30" fill="none" xmlns="http://www.w3.org/2000/svg">
<path fill-rule="evenodd" clip-rule="evenodd" d="M15 30C23.2843 30 30 23.2843 30 15C30 6.71573 23.2843 0 15 0C6.71573 0 0 6.71573 0 15C0 23.2843 6.71573 30 15 30ZM21.1239 19.0353L21.4717 18.5161L20.4332 17.8204L20.0854 18.3397C18.9402 20.0492 16.9927 21.1725 14.7831 21.1725C12.5777 21.1725 10.6334 20.0534 9.48738 18.3493L9.13861 17.8307L8.10134 18.5282L8.45012 19.0468C9.81847 21.0816 12.1441 22.4225 14.7831 22.4225C17.4272 22.4225 19.7566 21.0766 21.1239 19.0353ZM12.8438 11.4219C12.8438 12.7594 11.7594 13.8438 10.4219 13.8438C9.08431 13.8438 8 12.7594 8 11.4219C8 10.0843 9.08431 9 10.4219 9C11.7594 9 12.8438 10.0843 12.8438 11.4219ZM19.1406 13.8438C20.4782 13.8438 21.5625 12.7594 21.5625 11.4219C21.5625 10.0843 20.4782 9 19.1406 9C17.8031 9 16.7188 10.0843 16.7188 11.4219C16.7188 12.7594 17.8031 13.8438 19.1406 13.8438Z" fill="#0E0AC5"/>
</svg>
